<svg id="Layer_1" data-name="Layer 1" xmlns="http://www.w3.org/2000/svg" viewBox="0 0 400 300" width="406" height="306" class="illustration styles_illustrationTablet__1DWOa"><title>_</title><path d="M109.49,61.05c-35.13,8.4-63.08,28.83-68,67.07-4.18,32.21.12,89.27,58.9,99.41,114.38,19.74,199.82,19.86,242.8-29.23C369.7,168,369.25,76,305.18,62.23,259.86,52.46,184.8,43.05,109.49,61.05Z" fill="#e6e6e6" opacity="0.3"></path><path d="M297.83,58.74V244.22H149.15a13.4,13.4,0,0,1-13.4-13.4V60a13,13,0,0,0-13-13H286.11A11.73,11.73,0,0,1,297.83,58.74Z" fill="#68e1fd"></path><path d="M135.75,60V202.28h-26V60a13,13,0,0,1,26,0Z" fill="#24285b"></path><path d="M135.75,60V202.28h-26V60a13,13,0,0,1,26,0Z" fill="#24285b"></path><path d="M162.56,226.32v6.8c0,4.09-6.12,10.51-12.19,11v.05h156a17.9,17.9,0,0,0,17.9-17.91H162.56Z" fill="#68e1fd"></path><path d="M162.56,226.32v6.8c0,4.09-6.12,10.51-12.19,11v.05h156a17.9,17.9,0,0,0,17.9-17.91H162.56Z" fill="#fff" opacity="0.5"></path><g opacity="0.12"><rect x="157.73" y="176.79" width="19.64" height="34.46"></rect><rect x="189.75" y="164.19" width="19.64" height="47.06"></rect><rect x="221.77" y="144" width="19.64" height="67.25"></rect><rect x="253.79" y="125.63" width="19.64" height="85.62"></rect></g><rect x="176.78" y="132.37" width="31.43" height="5.29" fill="#fff" opacity="0.46"></rect><rect x="176.78" y="146.32" width="31.43" height="5.29" fill="#fff" opacity="0.46"></rect><rect x="157.73" y="132.37" width="9.27" height="5.29" opacity="0.1"></rect><rect x="157.73" y="146.32" width="9.27" height="5.29" fill="#ffd200"></rect><path d="M198.27,92.05a22.51,22.51,0,1,1-.47-4.58h0c.11.6.22,1.22.3,1.82A20.87,20.87,0,0,1,198.27,92.05Z" fill="#fff" opacity="0.46"></path><path d="M175.76,69.54V92.05l22-4.58S194.73,69.39,175.76,69.54Z" fill="#ffd200"></path><path d="M198.27,92.05a22.51,22.51,0,0,1-35,18.71l12.51-18.71,22-4.58c.11.6.22,1.22.3,1.82A20.87,20.87,0,0,1,198.27,92.05Z" opacity="0.1"></path><rect x="207.87" y="70.14" width="77.44" height="5.29" transform="translate(493.19 145.57) rotate(-180)" fill="#fff" opacity="0.46"></rect><rect x="207.87" y="81.69" width="77.44" height="5.29" transform="translate(493.19 168.67) rotate(-180)" fill="#fff" opacity="0.46"></rect><rect x="207.87" y="93.24" width="77.44" height="5.29" transform="translate(493.19 191.77) rotate(-180)" fill="#fff" opacity="0.46"></rect><rect x="207.87" y="104.79" width="44.47" height="5.29" transform="translate(460.22 214.87) rotate(-180)" fill="#fff" opacity="0.46"></rect><rect x="244.36" y="125.63" width="53.25" height="65.23" opacity="0.1"></rect><rect x="249.69" y="127.17" width="72.71" height="56.36" fill="#24285b"></rect><rect x="249.69" y="119.69" width="72.71" height="7.47" fill="#ffd200"></rect><path d="M307.7,154.45a21.43,21.43,0,0,0-3.84-12.3l0,0-.63-.83A21.53,21.53,0,0,0,286,132.8a21.78,21.78,0,0,0-4.36.43,23.27,23.27,0,0,0-2.39.63l-.59.2a21.49,21.49,0,0,0-9.86,7.24l-.64.83,0,0a21.68,21.68,0,0,0,0,24.61h0l.64.83a21.49,21.49,0,0,0,17.2,8.51,22.19,22.19,0,0,0,3.76-.32c.41-.07.82-.16,1.22-.25.6-.14,1.2-.31,1.78-.5.34-.11.67-.23,1-.36l.39-.15a21.86,21.86,0,0,0,2.44-1.17l.16-.09a21.14,21.14,0,0,0,4.37-3.31h0q.35-.34.69-.72c.48-.51.94-1.06,1.38-1.63l.63-.83h0A21.49,21.49,0,0,0,307.7,154.45ZM301,167.24c-.22.24-.43.49-.66.72l-.08.09c-.22.23-.44.45-.67.67l-.1.09c-.22.21-.45.42-.69.62l-.11.09-.72.58-.11.09-.76.54-.1.06c-.26.18-.53.35-.8.51l-.07,0c-.28.16-.57.33-.86.48h0c-.29.16-.59.31-.89.45h0c-.3.14-.6.26-.9.39l-.08,0c-.3.12-.59.22-.89.32l-.12,0,0,0a20.32,20.32,0,0,0,4.29-7.91,21.67,21.67,0,0,1,4.44,2ZM279.69,173c-.3-.1-.6-.2-.89-.32l-.08,0c-.31-.13-.61-.25-.9-.39h0q-.45-.21-.9-.45h0c-.29-.15-.57-.32-.85-.48l-.08,0c-.27-.16-.53-.33-.8-.51l-.1-.06c-.25-.18-.51-.36-.75-.55l-.11-.08-.73-.58-.1-.09c-.24-.2-.47-.41-.7-.62l-.09-.09c-.23-.22-.46-.44-.68-.67l-.07-.08c-.23-.24-.45-.49-.67-.74h0a22,22,0,0,1,4.45-2,20.31,20.31,0,0,0,4.28,7.91l0,0Zm-8.55-31.37c.21-.25.43-.49.65-.73a.6.6,0,0,1,.08-.08c.22-.23.44-.46.67-.67l.1-.1c.23-.21.46-.42.7-.62l.11-.09c.23-.2.47-.39.72-.58l.11-.08q.38-.28.75-.54l.11-.07c.26-.18.52-.35.79-.51l.08,0,.85-.49h0c.3-.16.6-.3.9-.44l0,0c.29-.13.59-.26.9-.38l.08,0,.89-.32.12,0,0,0a20.31,20.31,0,0,0-4.28,7.91,21.77,21.77,0,0,1-4.45-2Zm21.26-5.81.89.32.08,0,.9.38,0,0c.3.14.6.28.89.44h0c.29.16.58.32.86.49l.07,0c.27.16.54.33.8.51l.1.07c.26.17.51.35.76.54l.11.08.72.58.11.09c.24.2.47.41.69.62a.94.94,0,0,1,.1.1c.23.21.45.44.67.67a.3.3,0,0,1,.08.08c.23.24.45.48.66.73h0a21.67,21.67,0,0,1-4.44,2,20.32,20.32,0,0,0-4.29-7.91l0,0ZM298,153.44a36.45,36.45,0,0,0-1-7.79,23.51,23.51,0,0,0,5.15-2.36,19.37,19.37,0,0,1,3.45,10.15Zm-11-18.52c3.13.65,5.88,4.28,7.49,9.37a34.18,34.18,0,0,1-7.49,1Zm-2,0V145.3a34.26,34.26,0,0,1-7.49-1C279.15,139.2,281.91,135.57,285,134.92Zm-8,11.31a36.68,36.68,0,0,0,8,1.09v6.12h-9A34.8,34.8,0,0,1,277,146.23Zm8,9.23v6.13a36.09,36.09,0,0,0-8,1.08,34.71,34.71,0,0,1-.94-7.21Zm0,8.15V174c-3.12-.65-5.88-4.27-7.49-9.36A33.66,33.66,0,0,1,285,163.61Zm2,0a33.58,33.58,0,0,1,7.49,1c-1.61,5.09-4.36,8.71-7.49,9.36Zm8-.94a36,36,0,0,0-8-1.08v-6.13h9A34.71,34.71,0,0,1,295.08,162.67Zm-8-9.23v-6.12a36,36,0,0,0,8-1.09,34.8,34.8,0,0,1,.94,7.21Zm-12-7.79a37.77,37.77,0,0,0-1,7.79h-7.61a19.46,19.46,0,0,1,3.46-10.15A23.43,23.43,0,0,0,275,145.65Zm-1,9.81a37.77,37.77,0,0,0,1,7.79,23.9,23.9,0,0,0-5.14,2.36,19.43,19.43,0,0,1-3.46-10.15Zm23,7.79a36.45,36.45,0,0,0,1-7.79h7.61a19.34,19.34,0,0,1-3.45,10.15A24,24,0,0,0,297.05,163.25Z" fill="#fff" opacity="0.46"></path><path d="M130.05,162.68a36.64,36.64,0,0,1,.48,26.38c-5.21,14.52,6.14,21.86-15.85,23.8S130.05,162.68,130.05,162.68Z" fill="#68e1fd"></path><path d="M130.05,162.68a36.64,36.64,0,0,1,.48,26.38c-5.21,14.52,6.14,21.86-15.85,23.8S130.05,162.68,130.05,162.68Z" fill="#fff" opacity="0.46"></path><path d="M115.15,131.89a23.21,23.21,0,0,1,2.14,5.75,1.85,1.85,0,0,1-1.55,2.12,4.1,4.1,0,0,1-4.16-1.57l-2.29-2.53a3.31,3.31,0,0,1-.06-3.83C110.55,129.63,114.18,129.85,115.15,131.89Z" fill="#f4a28c"></path><polygon points="110.99 136.13 108.09 147.89 114.68 149.03 114.16 140.24 110.99 136.13" fill="#f4a28c"></polygon><path d="M116.14,134l1.51.9a.59.59,0,0,1,0,1l-1.2.8Z" fill="#f4a28c"></path><path d="M114.19,139.78A9.35,9.35,0,0,1,111,138.5s.23,5.5,3.45,6.22Z" fill="#ce8172" opacity="0.31"></path><path d="M112.3,136s-.59-1.3-1.52-.78-.11,2.4,1.3,2Z" fill="#f4a28c"></path><path d="M107.47,135.37a1.85,1.85,0,0,0,1.68.72c1.06-.08,1.52-.88,2.19-1.54s1.5-1.08,1.92-2l1.25-1a2.57,2.57,0,0,0,.08-3.89,3.46,3.46,0,0,0-2.45-1c-2,.09-3.92,2.1-4.8,3.74C106.72,131.53,106.5,134.11,107.47,135.37Z" fill="#ffd200"></path><path d="M109.91,135s-2-.64-2.32.9,1.86,2.19,3,1A2.93,2.93,0,0,1,109.91,135Z" fill="#f4a28c"></path><rect x="82.92" y="213.9" width="42.81" height="30.59" transform="translate(208.65 458.4) rotate(-180)" fill="#e6e6e6"></rect><polygon points="114.43 244.5 116.49 217.56 125.07 218.87 127.63 229.2 125.73 244.5 114.43 244.5" opacity="0.08"></polygon><path d="M115.5,241s.92,2.55,3.23,2.74,2.9,2.45.83,3-7.41-2.08-7.41-2.08l.15-3.32Z" fill="#68e1fd"></path><path d="M115.24,148.89l-6.59-1.13s-21.92,0-25.76,7.54-3,35.45,9.65,58.39l26,.75s-1.44-16.85,3.4-26S141.78,159.75,115.24,148.89Z" fill="#68e1fd"></path><path d="M92.54,213.69l12.7-1.91A12.16,12.16,0,0,1,119.15,225l-1.66,16.14h-6.23l.53-15.11a5.72,5.72,0,0,0-6.62-5.86C99.77,221.08,93.07,220.71,92.54,213.69Z" fill="#24285b"></path><path d="M128.43,241s.92,2.55,3.22,2.74,2.91,2.45.84,3-7.42-2.08-7.42-2.08l.15-3.32Z" fill="#68e1fd"></path><path d="M94.77,158s7.19,6.31,5.75,13.28c-.24,1.12-.48,2.48-.72,4a39.75,39.75,0,0,0,9.33,32.56l4.54,5.18-21.13.71-1.81-3.54-9.86-16.39Z" opacity="0.08"></path><path d="M105.47,213.69l12.7-1.91A12.15,12.15,0,0,1,132.07,225l-1.66,16.14h-6.23l.54-15.11a5.72,5.72,0,0,0-6.62-5.86C112.7,221.08,106,220.71,105.47,213.69Z" fill="#24285b"></path><path d="M82.52,156c-4.81,6.77-9.08,21.72-5.37,42.78a14.14,14.14,0,0,0,13,11.62L110,211.64v-6.47L94.94,203a5.79,5.79,0,0,1-4.7-7.41C92.89,186.84,97,171,96,159.7A7.43,7.43,0,0,0,82.52,156Z" fill="#68e1fd"></path><path d="M82.52,156c-4.81,6.77-9.08,21.72-5.37,42.78a14.14,14.14,0,0,0,13,11.62L110,211.64v-6.47L94.94,203a5.79,5.79,0,0,1-4.7-7.41C92.89,186.84,97,171,96,159.7A7.43,7.43,0,0,0,82.52,156Z" fill="#fff" opacity="0.46"></path><path d="M110,206.74s8-.21,6.91,4-6.91.91-6.91.91Z" fill="#f4a28c"></path><polygon points="136.81 213.15 140.06 194.77 117.01 194.77 115.01 210.44 104.44 210.59 104.44 213.15 136.81 213.15" fill="#ffd200"></polygon><circle cx="127.63" cy="203.58" r="2.31" fill="#fff"></circle><path d="M103,148s-2.78-2.93,4.75-3.25,15.06.59,13.28,7S103,148,103,148Z" fill="#68e1fd"></path><path d="M103,148s-2.78-2.93,4.75-3.25,15.06.59,13.28,7S103,148,103,148Z" fill="#fff" opacity="0.46"></path><path d="M308.65,111.69s-6.31-1.72-7.69-7.6c0,0,9.78-2,10.06,8.12Z" fill="#68e1fd" opacity="0.58"></path><path d="M309.42,111.06s-4.41-7-.53-13.49c0,0,7.44,4.73,4.14,13.51Z" fill="#68e1fd" opacity="0.73"></path><path d="M310.56,111.07s2.33-7.36,9.37-8.76c0,0,1.32,4.78-4.56,8.78Z" fill="#68e1fd"></path><polygon points="305.98 110.9 307.26 119.66 315.32 119.69 316.51 110.95 305.98 110.9" fill="#24285b"></polygon></svg>