<svg id="Layer_1" data-name="Layer 1" xmlns="http://www.w3.org/2000/svg" viewBox="0 0 400 300" width="406" height="306" class="illustration styles_illustrationTablet__1DWOa"><title>_</title><rect x="46.62" y="47.88" width="133" height="117.99" fill="#f2f2f2"></rect><rect x="46.62" y="147.54" width="133" height="18.33" fill="#e6e6e6"></rect><circle cx="57.76" cy="156.13" r="5.53" fill="#68e1fd"></circle><circle cx="71.09" cy="156.13" r="5.53" fill="#ffd200"></circle><path d="M73.66,157.53a3.19,3.19,0,0,0-.8-.62.46.46,0,0,1-.23-.39l-.09-.78a3.46,3.46,0,0,0-2.2-.08l-.13.76a.46.46,0,0,1-.26.39,3,3,0,0,0-.84.57.44.44,0,0,1-.63,0l-.7-.75a.46.46,0,0,1,0-.64,5.15,5.15,0,0,1,7.26.25.44.44,0,0,1,0,.63l-.75.7A.44.44,0,0,1,73.66,157.53Z" fill="#fff"></path><circle cx="84.43" cy="156.13" r="5.53" fill="#68e1fd"></circle><rect x="54.32" y="154.16" width="4.69" height="3.94" fill="#fff"></rect><polygon points="61.19 157.71 59.63 157.19 59.63 155.21 61.19 154.69 61.19 157.71" fill="#fff"></polygon><rect x="82.82" y="152.31" width="3.21" height="5.64" rx="1.6" fill="#fff"></rect><rect x="84.09" y="157.42" width="0.68" height="1.9" fill="#fff"></rect><rect x="83.02" y="159.14" width="2.82" height="0.8" fill="#fff"></rect><rect x="204.11" y="47.88" width="156" height="166.4" fill="#f2f2f2"></rect><rect x="204.11" y="192.77" width="156" height="21.5" fill="#e6e6e6"></rect><circle cx="217.17" cy="202.85" r="6.48" fill="#68e1fd"></circle><circle cx="232.82" cy="202.85" r="6.48" fill="#ffd200"></circle><path d="M235.83,204.49a3.66,3.66,0,0,0-.94-.73.52.52,0,0,1-.27-.45l-.1-.92a4.1,4.1,0,0,0-2.59-.09l-.15.89a.55.55,0,0,1-.3.46,3.8,3.8,0,0,0-1,.66.52.52,0,0,1-.74,0l-.82-.88a.53.53,0,0,1,0-.75,6,6,0,0,1,8.52.29.51.51,0,0,1,0,.74l-.87.82A.52.52,0,0,1,235.83,204.49Z" fill="#fff"></path><circle cx="248.46" cy="202.85" r="6.48" fill="#68e1fd"></circle><rect x="213.15" y="200.54" width="5.5" height="4.62" fill="#fff"></rect><polygon points="221.2 204.7 219.38 204.09 219.38 201.77 221.2 201.16 221.2 204.7" fill="#fff"></polygon><rect x="246.58" y="198.37" width="3.76" height="6.62" rx="1.64" fill="#fff"></rect><rect x="248.06" y="204.36" width="0.8" height="2.23" fill="#fff"></rect><rect x="246.8" y="206.38" width="3.31" height="0.94" fill="#fff"></rect><rect x="98.5" y="192.17" width="91.67" height="67.53" fill="#f2f2f2"></rect><rect x="98.5" y="179.53" width="91.67" height="12.64" fill="#e6e6e6"></rect><circle cx="106.18" cy="185.85" r="3.81" fill="#68e1fd"></circle><circle cx="115.37" cy="185.85" r="3.81" fill="#ffd200"></circle><path d="M117.14,186.82a2.05,2.05,0,0,0-.55-.43.3.3,0,0,1-.16-.27l-.06-.54a2.4,2.4,0,0,0-1.52-.05l-.09.52a.29.29,0,0,1-.18.27,2.22,2.22,0,0,0-.57.39.31.31,0,0,1-.44,0l-.48-.52a.3.3,0,0,1,0-.43,3.54,3.54,0,0,1,5,.16.31.31,0,0,1,0,.44l-.51.48A.31.31,0,0,1,117.14,186.82Z" fill="#fff"></path><circle cx="124.56" cy="185.85" r="3.81" fill="#68e1fd"></circle><rect x="103.81" y="184.49" width="3.23" height="2.72" fill="#fff"></rect><polygon points="108.55 186.94 107.47 186.59 107.47 185.22 108.55 184.86 108.55 186.94" fill="#fff"></polygon><rect x="123.46" y="183.22" width="2.21" height="3.89" rx="1.11" fill="#fff"></rect><rect x="124.33" y="186.74" width="0.47" height="1.31" fill="#fff"></rect><rect x="123.59" y="187.93" width="1.94" height="0.55" fill="#fff"></rect><rect x="204.11" y="227.7" width="32.76" height="31.83" fill="#f2f2f2"></rect><rect x="250.11" y="231.2" width="109.99" height="5" fill="#f2f2f2"></rect><rect x="250.11" y="241.12" width="109.99" height="5" fill="#f2f2f2"></rect><rect x="250.11" y="251.04" width="90" height="5" fill="#f2f2f2"></rect><path d="M63.41,240.24S49,236.31,45.9,222.92c0,0,22.29-4.51,22.92,18.5Z" fill="#68e1fd" opacity="0.58"></path><path d="M65.18,238.81S55.12,222.92,64,208.06c0,0,17,10.76,9.42,30.78Z" fill="#68e1fd" opacity="0.73"></path><path d="M67.77,238.82s5.31-16.78,21.36-20c0,0,3,10.9-10.39,20Z" fill="#68e1fd"></path><polygon points="57.33 238.44 60.25 258.39 78.62 258.47 81.32 238.54 57.33 238.44" fill="#24285b"></polygon><path d="M137.32,80s25.45,4.81,40.78-.62,5.15-25.21-10.2-35.63l6.71-5.58s41.15,27.1,18.83,57.53S116.44,120.49,137.32,80Z" fill="#68e1fd"></path><path d="M137.32,80s25.45,4.81,40.78-.62,5.15-25.21-10.2-35.63l6.71-5.58s41.15,27.1,18.83,57.53S116.44,120.49,137.32,80Z" fill="#fff" opacity="0.46"></path><path d="M81.68,147.54h67c6.08-14.24,26.25-68.9-22.14-68.75a82.36,82.36,0,0,0-11.78,1c-1.63.24-3.32.53-5.08.87,0,0-45.9-.74-41.6,23.73C71.34,122.82,78.41,140.15,81.68,147.54Z" fill="#68e1fd"></path><path d="M121,93.3c-7.67,3.84-8.94-3.83-8.94-3.83-1.34-1.94.4-6.21,2.66-9.72a82.36,82.36,0,0,1,11.78-1C126.69,83.54,126,90.8,121,93.3Z" opacity="0.08"></path><path d="M110.5,80.8a28.34,28.34,0,0,1,.8,3.27c.26,1.51,1.07,3.71,3.54,3.82,3.81.16,4-5.84,4-5.84s1.56-5.83-2.57-6C112.53,75.86,109.06,75.85,110.5,80.8Z" fill="#f4a28c"></path><path d="M118.61,82.32s0-1.82,1.52-2S121.55,83.63,118.61,82.32Z" fill="#f4a28c"></path><path d="M111.63,82.29s.3-1.79-1.22-2.16S108.52,83.15,111.63,82.29Z" fill="#f4a28c"></path><path d="M86.6,147.54h49.66s-51-8.49-43.81-22.2,0-28.95,0-28.95L69.16,111.62l3.71,25Z" opacity="0.08"></path><path d="M110.5,80.8s-6.13,0-4.06-4.82,3.12-1.57,3.91-5.17,1.84-4.43,3.91-3.22.69,4.51,3.38,3.26,4.5-2.33,5.37-.08.49,3.45-1.22,4.5,1.59,3.8-2.78,5.72-7.45-2.73-7.45-2.73Z" fill="#24285b"></path><path d="M63.88,147.54h50.57l-.69-2.9S70.1,139,75.15,125.27c4.2-11.45,24.16-17.49,16.14-31.33a12.92,12.92,0,0,0-17.78-4.43c-11.91,7.09-30.42,21.68-25.4,41.88C50.13,139.51,56.19,144.53,63.88,147.54Z" fill="#68e1fd"></path><path d="M63.88,147.54h50.57l-.69-2.9S70.1,139,75.15,125.27c4.2-11.45,24.16-17.49,16.14-31.33a12.92,12.92,0,0,0-17.78-4.43c-11.91,7.09-30.42,21.68-25.4,41.88C50.13,139.51,56.19,144.53,63.88,147.54Z" fill="#fff" opacity="0.46"></path><path d="M169.6,42.35c-.71.58-2.36-2.13-2.53-2.52a37.1,37.1,0,0,1-1.95-5.63,4.12,4.12,0,0,1,2.15,1.94c.14-1.59-.58-3.25-.06-4.76a1.4,1.4,0,0,1,1.42-1.08c1.73-.05,3.08,1.5,3.83,3.06a35.92,35.92,0,0,1,1.77,3.71c.4,1.17-.21,1.58-1.08,2.32C172,40.39,170.78,41.36,169.6,42.35Z" fill="#f4a28c"></path><path d="M123.82,147.54a.84.84,0,0,0,.19-1.18c-1.65-2.47-10.25-1.72-10.25-1.72l.69,2.9Z" fill="#f4a28c"></path><rect x="46.62" y="179.53" width="44.94" height="23.31" fill="#f2f2f2"></rect><path d="M172.79,214s12.75,6.55,17.12,3.55S195.53,198,195.53,198l6,1.32s2.3,32.91-7.82,36.32-27.82-5.32-27.82-5.32Z" fill="#f4a28c"></path><path d="M138,214c4.2,8.35,13.41,19.55,32.95,21.61l4.18-21s-14.86-9.39-30.58-10.55A6.85,6.85,0,0,0,138,214Z" fill="#68e1fd"></path><path d="M138,214c4.2,8.35,13.41,19.55,32.95,21.61l4.18-21s-14.86-9.39-30.58-10.55A6.85,6.85,0,0,0,138,214Z" fill="#fff" opacity="0.46"></path><path d="M195.82,198c-.29-.07-.59-6.43.18-5.84a3.52,3.52,0,0,1,1,1.77s0-4.5,2.32-4,3.11,5.68,2.19,9.32l-5.69-1.05" fill="#f4a28c"></path><path d="M141.39,185a26.21,26.21,0,0,1,0,7.08,2.14,2.14,0,0,1-2.52,1.68,4.74,4.74,0,0,1-3.88-3.36l-1.47-3.64a3.83,3.83,0,0,1,1.46-4.17C137.32,180.7,141.16,182.38,141.39,185Z" fill="#f4a28c"></path><polygon points="133.81 187.39 132.36 201.27 140.07 201.52 138.03 191.32 133.81 187.39" fill="#f4a28c"></polygon><path d="M140.35,185.21a17.6,17.6,0,0,1-3.94-.1,3.56,3.56,0,0,1,.21,3.9,2.89,2.89,0,0,1-3.43,1.33l-.22-5.46a4.31,4.31,0,0,1,2-4,15.19,15.19,0,0,1,1.77-1c1.54-.72,3.9.21,5.26-.93a1,1,0,0,1,1.66.59c.33,1.65.18,4.28-2,5.31A4.39,4.39,0,0,1,140.35,185.21Z" fill="#24285b"></path><path d="M137.07,188.85s-.12-1.63-1.35-1.44-1.06,2.56.62,2.69Z" fill="#f4a28c"></path><path d="M141.63,187.65l1.27,1.57a.69.69,0,0,1-.37,1.1l-1.61.39Z" fill="#f4a28c"></path><path d="M138.57,193.53a5.06,5.06,0,0,1-2.57-1.35,8,8,0,0,0,3.18,4.91Z" fill="#ce8172" opacity="0.31"></path><path d="M158.89,259.7c2.61-5.57,8.2-19.75,6.79-36.64-1.82-21.85-25.82-21.75-25.82-21.75l-3.42-.11A21.24,21.24,0,0,0,115.67,215c-5.45,15.1,3.58,36.27,7.75,44.74Z" fill="#68e1fd"></path><path d="M123.33,259.7h12.3c-.92-2.64-1.63-7.27-.79-15.2,1.69-15.72-2.91-31.95-2.91-31.95-17.53.64-12.21,37.91-11.22,41.23A39.71,39.71,0,0,0,123.33,259.7Z" opacity="0.08"></path><path d="M120.84,206.69c-7.43,5.67-16.72,16.79-15.12,36.37l21.39.22s6.47-16.34,4.69-32A6.84,6.84,0,0,0,120.84,206.69Z" fill="#68e1fd"></path><path d="M120.84,206.69c-7.43,5.67-16.72,16.79-15.12,36.37l21.39.22s6.47-16.34,4.69-32A6.84,6.84,0,0,0,120.84,206.69Z" fill="#fff" opacity="0.46"></path><path d="M119.82,259.7a57.52,57.52,0,0,1,4.06-16.45l-16.14-.17a157.77,157.77,0,0,0,.78,16.62Z" fill="#f4a28c"></path><path d="M288.61,46.09s6.6-5.59,11.8-1.69,1.66,19.69,13,16.06c0,0-12.29,10.19-20.89-6.45Z" fill="#24285b"></path><path d="M293.88,56.91s4.49-.63,2.63-6.75-6.93-5.9-8.38-4.29Z" fill="#68e1fd"></path><path d="M280.46,53.6a33.31,33.31,0,0,0,2.1,8.64,2.69,2.69,0,0,0,3.59,1.28,6,6,0,0,0,3.72-5.26l.69-4.9a4.81,4.81,0,0,0-3.05-4.64C284.14,47.16,280,50.37,280.46,53.6Z" fill="#f4a28c"></path><polygon points="291.66 56.09 295.14 73.28 285.53 74.52 286.82 61.84 291.66 56.09" fill="#f4a28c"></polygon><path d="M281,56.93l-1.07,2.31a.86.86,0,0,0,.78,1.22h2.08Z" fill="#f4a28c"></path><path d="M286.79,62.2a6.57,6.57,0,0,0,2.93-1.9s1.11,3.67-3.3,5.53Z" fill="#ce8172" opacity="0.31"></path><path d="M291.3,56.17s-.35-2,1.2-2.16,2.07,2.79.06,3.46Z" fill="#f4a28c"></path><path d="M281.52,53.14a15.57,15.57,0,0,0,5.1-.59s1.76,5.78,6.61,6.73c0,0,3.44-9.32-2.4-12.12-4.88-2.34-8.57-4.5-11.94-.66A4,4,0,0,0,281.52,53.14Z" fill="#24285b"></path><path d="M273.45,126.19s-.31,37-25.34,39.44-39.54-46.54-39.69-47c-.37-1.26-2.41-2.42-3.14-3.6a10.54,10.54,0,0,1-1.55-5.55,1.27,1.27,0,0,1,.13-.61.84.84,0,0,1,.93-.29,2.49,2.49,0,0,1,.9.53,11.27,11.27,0,0,1-.47-3.51c.07-2.51,2-5.31,4.18-2.61a16.29,16.29,0,0,1,2.22,4.62c.65,1.76,1.2,3.57,1.71,5.38a11.47,11.47,0,0,0,.66,2.48s14.53,25.53,26.64,27.51,2.11-37.89,29.37-57.36S273.45,126.19,273.45,126.19Z" fill="#f4a28c"></path><path d="M286.88,55.66s0-2.39,1.9-2.23,2.21,2.92,0,4.28Z" fill="#f4a28c"></path><path d="M295.14,73.28l-9.61,1.24s-52,25-22.24,60.13A19.88,19.88,0,0,1,267.92,145l2.7,21.59h39.07S366.12,85.89,295.14,73.28Z" fill="#68e1fd"></path><path d="M294.86,93.27s-10.93,16.56,4.05,32.24,6.29,29.35-10.78,18.61-19.83,3.26-19.83,3.26l1,8.79,26.57-.3,29.44.11,10.36-24.56Z" opacity="0.08"></path><polygon points="326.6 192.77 318.33 156.17 269.32 156.17 263.25 192.77 326.6 192.77" fill="#24285b"></polygon><path d="M294.86,93.27c-.61-11.54,12.79-18.4,22.15-11.63,12.64,9.15,30.57,24.71,25.68,65.14-5.94,49-67.41-1.79-67.41-1.79l2.54-6.47s33.79,21.12,42.86,7.88c2.79-4.08-1-10.25-3.91-15.14C311.57,122.42,295.6,107.35,294.86,93.27Z" fill="#f4a28c"></path><path d="M277.58,138.55c-.28-2.13-4-5.24-5.52-6.5a4.36,4.36,0,0,0-1.55-.94,1.67,1.67,0,0,0-1.69.4,2.45,2.45,0,0,0-.28,2c.39,2.42.87,5.65,2.17,7.77.33.54,4.16,3.73,4.57,2.81.71-1.56,1.93-3.35,2.28-5A1.67,1.67,0,0,0,277.58,138.55Z" fill="#f4a28c"></path><path d="M298.91,74s1.33-4.15-6.34-5-13.79,2.39-11.27,7.82C281.3,76.84,287.08,81.44,298.91,74Z" fill="#68e1fd"></path><path d="M298.91,74s1.33-4.15-6.34-5-13.79,2.39-11.27,7.82C281.3,76.84,287.08,81.44,298.91,74Z" fill="#fff" opacity="0.46"></path><rect x="274.78" y="138.1" width="5.09" height="9.68" transform="translate(403.06 428.49) rotate(-141.03)" fill="#24285b"></rect></svg>